<svg width="1280" height="720" viewBox="0 0 1280 720" fill="none" xmlns="http://www.w3.org/2000/svg">
<g clip-path="url(#clip0_0_87)">
<rect width="1280" height="720" fill="white"/>
<path d="M-16 43C28.4685 43 24.6739 43.5066 69.021 46.9365C155.787 53.6471 243.675 84.5717 323.182 117.858C445.164 168.927 612.649 250.805 704.567 344.112C798.514 439.479 898.794 547.851 939.175 675.99C986.626 826.564 901.335 776.884 998.71 799.419C963.393 818.881 990.637 842.953 1031 826.564" stroke="#87AAAA" stroke-opacity="0.7" stroke-width="10" stroke-linecap="round"/>
<path d="M-94 125C-50.5508 125 -54.2585 125.444 -10.9279 128.448C73.8488 134.325 159.722 161.408 237.407 190.56C356.593 235.286 520.238 306.994 610.05 388.712C701.843 472.233 799.825 567.144 839.28 679.367C885.643 811.239 802.307 767.73 897.45 787.466C862.942 804.511 889.563 825.592 929 811.239" stroke="#87AAAA" stroke-opacity="0.7" stroke-width="10" stroke-linecap="round"/>
<path d="M-54 81C-9.70137 81 -13.4815 81.4822 30.6962 84.7469C117.13 91.1343 204.683 120.57 283.887 152.253C405.402 200.862 572.247 278.796 663.814 367.61C757.402 458.383 857.299 561.536 897.526 683.504C944.795 826.826 859.83 779.539 956.833 800.989C921.651 819.513 948.792 842.425 989 826.825" stroke="#DDBEBE" stroke-opacity="0.7" stroke-width="10" stroke-linecap="round"/>
<path d="M-142 184.617C-98.8057 184.617 -55.0446 182.673 -11.9682 185.687C72.3113 191.584 185.084 224.102 262.313 253.355C380.799 298.235 518.248 367.238 607.533 449.238C698.787 533.047 762.173 628.286 801.397 740.896C847.488 873.222 749.05 829.564 843.635 849.368C809.33 866.471 835.794 887.625 875 873.222" stroke="#DDBEBE" stroke-opacity="0.7" stroke-width="10" stroke-linecap="round"/>
<path d="M-235.964 274.096C-195.869 271.74 -155.362 267.427 -115.201 268.061C-36.6269 269.301 69.9447 295.341 143.334 320.087C255.929 358.053 387.529 418.867 475.178 495.174C564.761 573.164 629.139 663.991 672.101 773.333C722.584 901.819 628.67 863.968 717.619 878.413C686.771 897.217 712.567 916.715 748.122 900.318" stroke="#DDBEBE" stroke-opacity="0.7" stroke-width="10" stroke-linecap="round"/>
<path d="M-117 232.67C-75.7169 232.67 -33.8922 230.558 7.27817 233.833C87.8285 240.24 195.611 275.569 269.423 307.351C382.667 356.111 514.033 431.08 599.367 520.17C686.585 611.224 747.166 714.697 784.654 837.043C828.706 980.809 734.623 933.376 825.023 954.892C792.236 973.474 817.529 996.457 855 980.809" stroke="#87AAAA" stroke-opacity="0.7" stroke-width="10" stroke-linecap="round"/>
</g>
<defs>
<clipPath id="clip0_0_87">
<rect width="1280" height="720" fill="white"/>
</clipPath>
</defs>
</svg>
