<svg width="108" height="108" viewBox="0 0 108 108" fill="none" xmlns="http://www.w3.org/2000/svg">
<g filter="url(#filter0_d_0_1)">
<circle cx="50" cy="50" r="50" fill="white"/>
</g>
<g filter="url(#filter1_d_0_1)">
<path d="M31.0063 21.3331L23.3639 29.8382C22.5414 30.7537 23.2084 32.2094 24.4389 32.1841L75.7344 31.1309C76.9655 31.1056 77.5723 29.6215 76.7103 28.7412L68.4691 20.3228C68.3333 20.1841 68.1461 20.1076 67.9519 20.1117L32.0228 20.867C31.6341 20.8752 31.2662 21.0439 31.0063 21.3331Z" fill="black"/>
<path d="M44.0146 72.277L22.093 32.3442L31.8568 22.2789L53.8906 63.087L44.0146 72.277Z" fill="white"/>
<path fill-rule="evenodd" clip-rule="evenodd" d="M20.8603 33.0209C20.5633 32.4797 20.6538 31.8081 21.0836 31.365L30.8474 21.2998C31.1594 20.9782 31.6058 20.8245 32.0496 20.8859C32.4934 20.9474 32.8813 21.2165 33.0942 21.6108L55.128 62.4189C55.4323 62.9824 55.3175 63.6803 54.8486 64.1165L44.9727 73.3066C44.6552 73.6019 44.2193 73.7343 43.7911 73.6654C43.363 73.5965 42.9906 73.3339 42.782 72.9538L20.8603 33.0209ZM44.0147 72.277L53.8907 63.0871L31.8568 22.2789L22.093 32.3442L44.0147 72.277Z" fill="black"/>
<path fill-rule="evenodd" clip-rule="evenodd" d="M30.8035 40.5064C31.1427 40.3174 31.571 40.4392 31.76 40.7784L39.7655 55.1469C39.9545 55.4862 39.8327 55.9144 39.4934 56.1034C39.1542 56.2924 38.726 56.1706 38.537 55.8314L30.5315 41.4629C30.3425 41.1236 30.4642 40.6954 30.8035 40.5064Z" fill="black"/>
<path d="M58.8284 68.7762L77.907 31.0679L68.031 21.5131L47.6805 61.4824L58.8284 68.7762Z" fill="white"/>
<path fill-rule="evenodd" clip-rule="evenodd" d="M79.1614 31.7027C79.4398 31.1527 79.3273 30.4857 78.8851 30.0571L69.0088 20.5024C68.6881 20.1922 68.2393 20.0526 67.7993 20.126C67.3593 20.1996 66.9803 20.4775 66.7778 20.8751L46.4274 60.8444C46.1017 61.4841 46.31 62.2663 46.9106 62.6592L58.0584 69.9529C58.3933 70.172 58.8055 70.238 59.192 70.1346C59.5785 70.0311 59.9025 69.768 60.0832 69.411L79.1614 31.7027ZM58.8284 68.7762L47.6805 61.4825L68.031 21.5131L77.907 31.0678L58.8284 68.7762Z" fill="black"/>
<path fill-rule="evenodd" clip-rule="evenodd" d="M66.6184 30.9462C66.9675 31.1165 67.1124 31.5373 66.9422 31.8864L61.1813 43.7022C61.0111 44.0512 60.5902 44.1962 60.2411 44.026C59.8921 43.8558 59.7471 43.4349 59.9172 43.0859L65.6782 31.2701C65.8484 30.9211 66.2693 30.7761 66.6184 30.9462Z" fill="black"/>
<path d="M65.1584 63.8974C65.1584 71.955 58.6264 78.4871 50.5689 78.4871C42.5113 78.4871 35.9794 71.955 35.9794 63.8974C35.9794 55.8399 42.5113 49.3079 50.5689 49.3079C58.6264 49.3079 65.1584 55.8399 65.1584 63.8974Z" fill="white"/>
<path fill-rule="evenodd" clip-rule="evenodd" d="M66.5646 63.8974C66.5646 72.7317 59.4031 79.8934 50.5689 79.8934C41.7347 79.8934 34.5732 72.7317 34.5732 63.8974C34.5732 55.0632 41.7347 47.9017 50.5689 47.9017C59.4031 47.9017 66.5646 55.0632 66.5646 63.8974ZM50.5689 78.4871C58.6264 78.4871 65.1584 71.955 65.1584 63.8974C65.1584 55.8399 58.6264 49.3079 50.5689 49.3079C42.5113 49.3079 35.9794 55.8399 35.9794 63.8974C35.9794 71.955 42.5113 78.4871 50.5689 78.4871Z" fill="black"/>
<path fill-rule="evenodd" clip-rule="evenodd" d="M59.8939 63.8974C59.8939 69.0477 55.7188 73.2227 50.5685 73.2227C45.4183 73.2227 41.2432 69.0477 41.2432 63.8974C41.2432 58.7472 45.4183 54.5721 50.5685 54.5721C55.7188 54.5721 59.8939 58.7472 59.8939 63.8974ZM50.5685 71.8165C54.9421 71.8165 58.4876 68.271 58.4876 63.8974C58.4876 59.5238 54.9421 55.9783 50.5685 55.9783C46.195 55.9783 42.6495 59.5238 42.6495 63.8974C42.6495 68.271 46.195 71.8165 50.5685 71.8165Z" fill="black"/>
</g>
<defs>
<filter id="filter0_d_0_1" x="0" y="0" width="108" height="108" filterUnits="userSpaceOnUse" color-interpolation-filters="sRGB">
<feFlood flood-opacity="0" result="BackgroundImageFix"/>
<feColorMatrix in="SourceAlpha" type="matrix" values="0 0 0 0 0 0 0 0 0 0 0 0 0 0 0 0 0 0 127 0" result="hardAlpha"/>
<feOffset dx="5" dy="5"/>
<feGaussianBlur stdDeviation="1.5"/>
<feColorMatrix type="matrix" values="0 0 0 0 0.75 0 0 0 0 0.63347 0 0 0 0 0.409375 0 0 0 0.5 0"/>
<feBlend mode="normal" in2="BackgroundImageFix" result="effect1_dropShadow_0_1"/>
<feBlend mode="normal" in="SourceGraphic" in2="effect1_dropShadow_0_1" result="shape"/>
</filter>
<filter id="filter1_d_0_1" x="1" y="5" width="98" height="98" filterUnits="userSpaceOnUse" color-interpolation-filters="sRGB">
<feFlood flood-opacity="0" result="BackgroundImageFix"/>
<feColorMatrix in="SourceAlpha" type="matrix" values="0 0 0 0 0 0 0 0 0 0 0 0 0 0 0 0 0 0 127 0" result="hardAlpha"/>
<feOffset dy="4"/>
<feGaussianBlur stdDeviation="2"/>
<feComposite in2="hardAlpha" operator="out"/>
<feColorMatrix type="matrix" values="0 0 0 0 0.24264 0 0 0 0 0.341667 0 0 0 0 0.207847 0 0 0 0.28 0"/>
<feBlend mode="normal" in2="BackgroundImageFix" result="effect1_dropShadow_0_1"/>
<feBlend mode="normal" in="SourceGraphic" in2="effect1_dropShadow_0_1" result="shape"/>
</filter>
</defs>
</svg>
