<svg width="1920" height="1080" viewBox="0 0 1920 1080" fill="none" xmlns="http://www.w3.org/2000/svg">
<g clip-path="url(#clip0_0_134)">
<rect width="1920" height="1080" fill="#F3EFCC"/>
<ellipse cx="960" cy="540" rx="432" ry="373" fill="#B2C0B3" fill-opacity="0.25"/>
<path d="M744.496 595.4C734.763 595.4 725.963 593.733 718.096 590.4C710.363 587.067 704.229 582.267 699.696 576C695.163 569.733 692.829 562.333 692.696 553.8H722.696C723.096 559.533 725.096 564.067 728.696 567.4C732.429 570.733 737.496 572.4 743.896 572.4C750.429 572.4 755.563 570.867 759.296 567.8C763.029 564.6 764.896 560.467 764.896 555.4C764.896 551.267 763.629 547.867 761.096 545.2C758.563 542.533 755.363 540.467 751.496 539C747.763 537.4 742.563 535.667 735.896 533.8C726.829 531.133 719.429 528.533 713.696 526C708.096 523.333 703.229 519.4 699.096 514.2C695.096 508.867 693.096 501.8 693.096 493C693.096 484.733 695.163 477.533 699.296 471.4C703.429 465.267 709.229 460.6 716.696 457.4C724.163 454.067 732.696 452.4 742.296 452.4C756.696 452.4 768.363 455.933 777.296 463C786.363 469.933 791.363 479.667 792.296 492.2H761.496C761.229 487.4 759.163 483.467 755.296 480.4C751.563 477.2 746.563 475.6 740.296 475.6C734.829 475.6 730.429 477 727.096 479.8C723.896 482.6 722.296 486.667 722.296 492C722.296 495.733 723.496 498.867 725.896 501.4C728.429 503.8 731.496 505.8 735.096 507.4C738.829 508.867 744.029 510.6 750.696 512.6C759.763 515.267 767.163 517.933 772.896 520.6C778.629 523.267 783.563 527.267 787.696 532.6C791.829 537.933 793.896 544.933 793.896 553.6C793.896 561.067 791.963 568 788.096 574.4C784.229 580.8 778.563 585.933 771.096 589.8C763.629 593.533 754.763 595.4 744.496 595.4ZM882.971 595.4C869.904 595.4 857.904 592.333 846.971 586.2C836.038 580.067 827.371 571.6 820.971 560.8C814.571 549.867 811.371 537.533 811.371 523.8C811.371 510.2 814.571 498 820.971 487.2C827.371 476.267 836.038 467.733 846.971 461.6C857.904 455.467 869.904 452.4 882.971 452.4C896.171 452.4 908.171 455.467 918.971 461.6C929.904 467.733 938.504 476.267 944.771 487.2C951.171 498 954.371 510.2 954.371 523.8C954.371 537.533 951.171 549.867 944.771 560.8C938.504 571.6 929.904 580.067 918.971 586.2C908.038 592.333 896.038 595.4 882.971 595.4ZM882.971 570.4C891.371 570.4 898.771 568.533 905.171 564.8C911.571 560.933 916.571 555.467 920.171 548.4C923.771 541.333 925.571 533.133 925.571 523.8C925.571 514.467 923.771 506.333 920.171 499.4C916.571 492.333 911.571 486.933 905.171 483.2C898.771 479.467 891.371 477.6 882.971 477.6C874.571 477.6 867.104 479.467 860.571 483.2C854.171 486.933 849.171 492.333 845.571 499.4C841.971 506.333 840.171 514.467 840.171 523.8C840.171 533.133 841.971 541.333 845.571 548.4C849.171 555.467 854.171 560.933 860.571 564.8C867.104 568.533 874.571 570.4 882.971 570.4ZM1040 595.4C1026.94 595.4 1014.94 592.333 1004 586.2C993.069 580.067 984.402 571.6 978.002 560.8C971.602 549.867 968.402 537.533 968.402 523.8C968.402 510.2 971.602 498 978.002 487.2C984.402 476.267 993.069 467.733 1004 461.6C1014.94 455.467 1026.94 452.4 1040 452.4C1053.2 452.4 1065.2 455.467 1076 461.6C1086.94 467.733 1095.54 476.267 1101.8 487.2C1108.2 498 1111.4 510.2 1111.4 523.8C1111.4 537.533 1108.2 549.867 1101.8 560.8C1095.54 571.6 1086.94 580.067 1076 586.2C1065.07 592.333 1053.07 595.4 1040 595.4ZM1040 570.4C1048.4 570.4 1055.8 568.533 1062.2 564.8C1068.6 560.933 1073.6 555.467 1077.2 548.4C1080.8 541.333 1082.6 533.133 1082.6 523.8C1082.6 514.467 1080.8 506.333 1077.2 499.4C1073.6 492.333 1068.6 486.933 1062.2 483.2C1055.8 479.467 1048.4 477.6 1040 477.6C1031.6 477.6 1024.14 479.467 1017.6 483.2C1011.2 486.933 1006.2 492.333 1002.6 499.4C999.002 506.333 997.202 514.467 997.202 523.8C997.202 533.133 999.002 541.333 1002.6 548.4C1006.2 555.467 1011.2 560.933 1017.6 564.8C1024.14 568.533 1031.6 570.4 1040 570.4ZM1251.63 594H1223.63L1160.23 498.2V594H1132.23V454.2H1160.23L1223.63 550.2V454.2H1251.63V594Z" fill="black" fill-opacity="0.5"/>
</g>
<defs>
<clipPath id="clip0_0_134">
<rect width="1920" height="1080" fill="white"/>
</clipPath>
</defs>
</svg>
