<svg width="1920" height="1080" viewBox="0 0 1920 1080" fill="none" xmlns="http://www.w3.org/2000/svg">
<g clip-path="url(#clip0_0_134)">
<rect width="1920" height="1080" fill="#79917B"/>
<ellipse cx="631.5" cy="687" rx="253.5" ry="261" fill="#B2C0B3" fill-opacity="0.25"/>
<ellipse cx="287" cy="512" rx="419" ry="382" fill="#B2C0B3" fill-opacity="0.25"/>
<path d="M1201.5 611.4C1191.76 611.4 1182.96 609.733 1175.1 606.4C1167.36 603.067 1161.23 598.267 1156.7 592C1152.16 585.733 1149.83 578.333 1149.7 569.8H1179.7C1180.1 575.533 1182.1 580.067 1185.7 583.4C1189.43 586.733 1194.5 588.4 1200.9 588.4C1207.43 588.4 1212.56 586.867 1216.3 583.8C1220.03 580.6 1221.9 576.467 1221.9 571.4C1221.9 567.267 1220.63 563.867 1218.1 561.2C1215.56 558.533 1212.36 556.467 1208.5 555C1204.76 553.4 1199.56 551.667 1192.9 549.8C1183.83 547.133 1176.43 544.533 1170.7 542C1165.1 539.333 1160.23 535.4 1156.1 530.2C1152.1 524.867 1150.1 517.8 1150.1 509C1150.1 500.733 1152.16 493.533 1156.3 487.4C1160.43 481.267 1166.23 476.6 1173.7 473.4C1181.16 470.067 1189.7 468.4 1199.3 468.4C1213.7 468.4 1225.36 471.933 1234.3 479C1243.36 485.933 1248.36 495.667 1249.3 508.2H1218.5C1218.23 503.4 1216.16 499.467 1212.3 496.4C1208.56 493.2 1203.56 491.6 1197.3 491.6C1191.83 491.6 1187.43 493 1184.1 495.8C1180.9 498.6 1179.3 502.667 1179.3 508C1179.3 511.733 1180.5 514.867 1182.9 517.4C1185.43 519.8 1188.5 521.8 1192.1 523.4C1195.83 524.867 1201.03 526.6 1207.7 528.6C1216.76 531.267 1224.16 533.933 1229.9 536.6C1235.63 539.267 1240.56 543.267 1244.7 548.6C1248.83 553.933 1250.9 560.933 1250.9 569.6C1250.9 577.067 1248.96 584 1245.1 590.4C1241.23 596.8 1235.56 601.933 1228.1 605.8C1220.63 609.533 1211.76 611.4 1201.5 611.4ZM1339.97 611.4C1326.9 611.4 1314.9 608.333 1303.97 602.2C1293.04 596.067 1284.37 587.6 1277.97 576.8C1271.57 565.867 1268.37 553.533 1268.37 539.8C1268.37 526.2 1271.57 514 1277.97 503.2C1284.37 492.267 1293.04 483.733 1303.97 477.6C1314.9 471.467 1326.9 468.4 1339.97 468.4C1353.17 468.4 1365.17 471.467 1375.97 477.6C1386.9 483.733 1395.5 492.267 1401.77 503.2C1408.17 514 1411.37 526.2 1411.37 539.8C1411.37 553.533 1408.17 565.867 1401.77 576.8C1395.5 587.6 1386.9 596.067 1375.97 602.2C1365.04 608.333 1353.04 611.4 1339.97 611.4ZM1339.97 586.4C1348.37 586.4 1355.77 584.533 1362.17 580.8C1368.57 576.933 1373.57 571.467 1377.17 564.4C1380.77 557.333 1382.57 549.133 1382.57 539.8C1382.57 530.467 1380.77 522.333 1377.17 515.4C1373.57 508.333 1368.57 502.933 1362.17 499.2C1355.77 495.467 1348.37 493.6 1339.97 493.6C1331.57 493.6 1324.1 495.467 1317.57 499.2C1311.17 502.933 1306.17 508.333 1302.57 515.4C1298.97 522.333 1297.17 530.467 1297.17 539.8C1297.17 549.133 1298.97 557.333 1302.57 564.4C1306.17 571.467 1311.17 576.933 1317.57 580.8C1324.1 584.533 1331.57 586.4 1339.97 586.4ZM1497 611.4C1483.94 611.4 1471.94 608.333 1461 602.2C1450.07 596.067 1441.4 587.6 1435 576.8C1428.6 565.867 1425.4 553.533 1425.4 539.8C1425.4 526.2 1428.6 514 1435 503.2C1441.4 492.267 1450.07 483.733 1461 477.6C1471.94 471.467 1483.94 468.4 1497 468.4C1510.2 468.4 1522.2 471.467 1533 477.6C1543.94 483.733 1552.54 492.267 1558.8 503.2C1565.2 514 1568.4 526.2 1568.4 539.8C1568.4 553.533 1565.2 565.867 1558.8 576.8C1552.54 587.6 1543.94 596.067 1533 602.2C1522.07 608.333 1510.07 611.4 1497 611.4ZM1497 586.4C1505.4 586.4 1512.8 584.533 1519.2 580.8C1525.6 576.933 1530.6 571.467 1534.2 564.4C1537.8 557.333 1539.6 549.133 1539.6 539.8C1539.6 530.467 1537.8 522.333 1534.2 515.4C1530.6 508.333 1525.6 502.933 1519.2 499.2C1512.8 495.467 1505.4 493.6 1497 493.6C1488.6 493.6 1481.14 495.467 1474.6 499.2C1468.2 502.933 1463.2 508.333 1459.6 515.4C1456 522.333 1454.2 530.467 1454.2 539.8C1454.2 549.133 1456 557.333 1459.6 564.4C1463.2 571.467 1468.2 576.933 1474.6 580.8C1481.14 584.533 1488.6 586.4 1497 586.4ZM1708.63 610H1680.63L1617.23 514.2V610H1589.23V470.2H1617.23L1680.63 566.2V470.2H1708.63V610Z" fill="white"/>
</g>
<defs>
<clipPath id="clip0_0_134">
<rect width="1920" height="1080" fill="white"/>
</clipPath>
</defs>
</svg>
